<?xml version="1.0" standalone="no"?>
<!DOCTYPE svg PUBLIC "-//W3C//DTD SVG 20010904//EN"
 "http://www.w3.org/TR/2001/REC-SVG-20010904/DTD/svg10.dtd">
<svg version="1.0" xmlns="http://www.w3.org/2000/svg"
 width="232.000000pt" height="232.000000pt" viewBox="0 0 232.000000 232.000000"
 preserveAspectRatio="xMidYMid meet">
<metadata>
Created by potrace 1.11, written by Peter Selinger 2001-2013
</metadata>
<g transform="translate(0.000000,232.000000) scale(0.100000,-0.100000)"
fill="#000000" stroke="none">
<path d="M861 1545 c-30 -7 -85 -28 -123 -46 l-68 -33 0 -208 0 -208 120 0
120 0 0 -101 0 -100 -52 3 c-50 3 -53 5 -58 33 -5 29 -7 30 -63 33 l-57 3 0
-101 0 -100 180 0 180 0 0 235 0 235 -120 0 -120 0 0 90 c0 98 2 100 68 115
30 6 32 5 32 -20 0 -25 1 -26 53 -20 81 10 77 4 77 110 l0 95 -57 -1 c-32 0
-82 -7 -112 -14z"/>
<path d="M1090 1145 l0 -415 70 0 70 0 0 85 c0 50 4 85 10 85 6 0 10 -6 10
-12 0 -29 54 -158 66 -158 7 0 21 26 30 58 10 31 24 66 31 77 13 19 13 19 15
-5 1 -14 2 -34 3 -45 1 -11 3 -35 4 -52 l1 -33 65 0 65 0 0 365 0 365 -61 31
c-34 17 -65 27 -69 22 -5 -4 -18 -48 -31 -98 -40 -163 -51 -197 -59 -188 -4 4
-20 55 -35 113 -15 58 -34 131 -42 163 l-16 57 -63 0 -64 0 0 -415z"/>
<path d="M1580 1075 l0 -345 190 0 190 0 0 49 c0 83 3 81 -126 81 l-114 0 0
35 0 35 104 0 c58 0 107 4 111 9 3 6 -5 36 -18 68 l-23 58 -87 3 -87 3 0 39 0
40 60 0 c37 0 60 4 60 11 0 33 -170 213 -232 245 l-28 15 0 -346z"/>
<path d="M433 1267 c-98 -108 -183 -329 -183 -476 l0 -71 180 0 180 0 0 65 0
65 -105 0 c-102 0 -105 1 -105 23 0 42 27 122 63 190 35 63 37 73 37 157 0 49
-4 91 -9 94 -5 3 -31 -18 -58 -47z"/>
</g>
</svg>
